<mxfile host="Electron" modified="2025-03-25T08:03:46.561Z" agent="Mozilla/5.0 (Windows NT 10.0; Win64; x64) AppleWebKit/537.36 (KHTML, like Gecko) draw.io/21.7.5 Chrome/114.0.5735.289 Electron/25.8.1 Safari/537.36" etag="YPz6oI9ZxlvDfJNp8_YT" version="21.7.5" type="device">
  <diagram name="PÃ¡gina-1" id="da2eaB085cDSm5otsonO">
    <mxGraphModel dx="922" dy="827" grid="1" gridSize="10" guides="1" tooltips="1" connect="1" arrows="1" fold="1" page="1" pageScale="1" pageWidth="1169" pageHeight="827" math="0" shadow="0">
      <root>
        <mxCell id="0" />
        <mxCell id="1" parent="0" />
        <mxCell id="sFCbS_ksO6BJOaW6iAsT-1" value="" style="rounded=0;whiteSpace=wrap;html=1;" parent="1" vertex="1">
          <mxGeometry x="120" y="80" width="510" height="430" as="geometry" />
        </mxCell>
        <mxCell id="sFCbS_ksO6BJOaW6iAsT-2" value="sistema de venta de billetes de tren" style="text;html=1;strokeColor=none;fillColor=none;align=center;verticalAlign=middle;whiteSpace=wrap;rounded=0;" parent="1" vertex="1">
          <mxGeometry x="120" y="90" width="180" height="30" as="geometry" />
        </mxCell>
        <mxCell id="sFCbS_ksO6BJOaW6iAsT-3" value="Viajero" style="shape=umlActor;verticalLabelPosition=bottom;verticalAlign=top;html=1;outlineConnect=0;" parent="1" vertex="1">
          <mxGeometry x="50" y="210" width="30" height="60" as="geometry" />
        </mxCell>
        <mxCell id="sFCbS_ksO6BJOaW6iAsT-4" value="comprar billete" style="ellipse;whiteSpace=wrap;html=1;" parent="1" vertex="1">
          <mxGeometry x="180" y="220" width="80" height="40" as="geometry" />
        </mxCell>
        <mxCell id="sFCbS_ksO6BJOaW6iAsT-5" value="billete del dia" style="ellipse;whiteSpace=wrap;html=1;" parent="1" vertex="1">
          <mxGeometry x="180" y="140" width="80" height="40" as="geometry" />
        </mxCell>
        <mxCell id="sFCbS_ksO6BJOaW6iAsT-6" value="billete semanal" style="ellipse;whiteSpace=wrap;html=1;" parent="1" vertex="1">
          <mxGeometry x="280" y="140" width="80" height="40" as="geometry" />
        </mxCell>
        <mxCell id="sFCbS_ksO6BJOaW6iAsT-7" value="semanal" style="ellipse;whiteSpace=wrap;html=1;" parent="1" vertex="1">
          <mxGeometry x="380" y="140" width="80" height="40" as="geometry" />
        </mxCell>
        <mxCell id="sFCbS_ksO6BJOaW6iAsT-8" value="actualizar tarifa" style="ellipse;whiteSpace=wrap;html=1;" parent="1" vertex="1">
          <mxGeometry x="180" y="300" width="80" height="40" as="geometry" />
        </mxCell>
        <mxCell id="sFCbS_ksO6BJOaW6iAsT-9" value="" style="endArrow=none;html=1;rounded=0;exitX=1;exitY=0.3333333333333333;exitDx=0;exitDy=0;exitPerimeter=0;entryX=0;entryY=0.5;entryDx=0;entryDy=0;" parent="1" source="sFCbS_ksO6BJOaW6iAsT-3" target="sFCbS_ksO6BJOaW6iAsT-8" edge="1">
          <mxGeometry width="50" height="50" relative="1" as="geometry">
            <mxPoint x="350" y="450" as="sourcePoint" />
            <mxPoint x="400" y="400" as="targetPoint" />
          </mxGeometry>
        </mxCell>
        <mxCell id="sFCbS_ksO6BJOaW6iAsT-10" value="" style="endArrow=none;html=1;rounded=0;" parent="1" target="sFCbS_ksO6BJOaW6iAsT-4" edge="1">
          <mxGeometry width="50" height="50" relative="1" as="geometry">
            <mxPoint x="80" y="230" as="sourcePoint" />
            <mxPoint x="190" y="330" as="targetPoint" />
          </mxGeometry>
        </mxCell>
        <mxCell id="CFYJrxoeSWMeS5hbIsR6-1" value="&amp;lt;&amp;lt;incldue&amp;gt;&amp;gt;" style="endArrow=open;endSize=12;dashed=1;html=1;rounded=0;entryX=0.5;entryY=1;entryDx=0;entryDy=0;" edge="1" parent="1" source="sFCbS_ksO6BJOaW6iAsT-8" target="sFCbS_ksO6BJOaW6iAsT-4">
          <mxGeometry width="160" relative="1" as="geometry">
            <mxPoint x="420" y="430" as="sourcePoint" />
            <mxPoint x="580" y="430" as="targetPoint" />
          </mxGeometry>
        </mxCell>
        <mxCell id="CFYJrxoeSWMeS5hbIsR6-2" value="" style="endArrow=block;endSize=16;endFill=0;html=1;rounded=0;entryX=0.5;entryY=0;entryDx=0;entryDy=0;exitX=0.5;exitY=1;exitDx=0;exitDy=0;" edge="1" parent="1" source="sFCbS_ksO6BJOaW6iAsT-5" target="sFCbS_ksO6BJOaW6iAsT-4">
          <mxGeometry width="160" relative="1" as="geometry">
            <mxPoint x="420" y="430" as="sourcePoint" />
            <mxPoint x="580" y="430" as="targetPoint" />
          </mxGeometry>
        </mxCell>
        <mxCell id="CFYJrxoeSWMeS5hbIsR6-3" value="" style="endArrow=block;endSize=16;endFill=0;html=1;rounded=0;entryX=1;entryY=0;entryDx=0;entryDy=0;exitX=0.5;exitY=1;exitDx=0;exitDy=0;" edge="1" parent="1" source="sFCbS_ksO6BJOaW6iAsT-6" target="sFCbS_ksO6BJOaW6iAsT-4">
          <mxGeometry width="160" relative="1" as="geometry">
            <mxPoint x="230" y="190" as="sourcePoint" />
            <mxPoint x="230" y="230" as="targetPoint" />
          </mxGeometry>
        </mxCell>
        <mxCell id="CFYJrxoeSWMeS5hbIsR6-4" value="" style="endArrow=block;endSize=16;endFill=0;html=1;rounded=0;entryX=1;entryY=0.5;entryDx=0;entryDy=0;exitX=0.5;exitY=1;exitDx=0;exitDy=0;" edge="1" parent="1" source="sFCbS_ksO6BJOaW6iAsT-7" target="sFCbS_ksO6BJOaW6iAsT-4">
          <mxGeometry width="160" relative="1" as="geometry">
            <mxPoint x="240" y="200" as="sourcePoint" />
            <mxPoint x="240" y="240" as="targetPoint" />
          </mxGeometry>
        </mxCell>
        <mxCell id="CFYJrxoeSWMeS5hbIsR6-7" value="Maquina" style="shape=umlActor;verticalLabelPosition=bottom;verticalAlign=top;html=1;outlineConnect=0;" vertex="1" parent="1">
          <mxGeometry x="660" y="360" width="30" height="60" as="geometry" />
        </mxCell>
        <mxCell id="CFYJrxoeSWMeS5hbIsR6-9" value="comprobar el tiempo que tarda&lt;br&gt;el usuario" style="ellipse;whiteSpace=wrap;html=1;" vertex="1" parent="1">
          <mxGeometry x="485" y="310" width="100" height="50" as="geometry" />
        </mxCell>
        <mxCell id="CFYJrxoeSWMeS5hbIsR6-10" value="tiempo agotado" style="ellipse;whiteSpace=wrap;html=1;" vertex="1" parent="1">
          <mxGeometry x="400" y="215" width="100" height="50" as="geometry" />
        </mxCell>
        <mxCell id="CFYJrxoeSWMeS5hbIsR6-11" value="&amp;lt;&amp;lt;extends&amp;gt;&amp;gt;" style="endArrow=open;endSize=12;dashed=1;html=1;rounded=0;entryX=1;entryY=1;entryDx=0;entryDy=0;exitX=0;exitY=0.5;exitDx=0;exitDy=0;" edge="1" parent="1" source="CFYJrxoeSWMeS5hbIsR6-10" target="sFCbS_ksO6BJOaW6iAsT-4">
          <mxGeometry x="-0.0025" width="160" relative="1" as="geometry">
            <mxPoint x="230" y="310" as="sourcePoint" />
            <mxPoint x="230" y="270" as="targetPoint" />
            <mxPoint as="offset" />
          </mxGeometry>
        </mxCell>
        <mxCell id="CFYJrxoeSWMeS5hbIsR6-13" value="&amp;lt;&amp;lt;extends&amp;gt;&amp;gt;" style="endArrow=open;endSize=12;dashed=1;html=1;rounded=0;entryX=0.5;entryY=0;entryDx=0;entryDy=0;exitX=0.5;exitY=1;exitDx=0;exitDy=0;" edge="1" parent="1" source="CFYJrxoeSWMeS5hbIsR6-10" target="CFYJrxoeSWMeS5hbIsR6-9">
          <mxGeometry width="160" relative="1" as="geometry">
            <mxPoint x="258" y="264" as="sourcePoint" />
            <mxPoint x="410" y="250" as="targetPoint" />
          </mxGeometry>
        </mxCell>
        <mxCell id="CFYJrxoeSWMeS5hbIsR6-14" value="tarda mucho en responder" style="ellipse;whiteSpace=wrap;html=1;" vertex="1" parent="1">
          <mxGeometry x="460" y="400" width="125" height="50" as="geometry" />
        </mxCell>
        <mxCell id="CFYJrxoeSWMeS5hbIsR6-16" value="" style="endArrow=none;html=1;rounded=0;entryX=1;entryY=1;entryDx=0;entryDy=0;exitX=0.25;exitY=0.1;exitDx=0;exitDy=0;exitPerimeter=0;" edge="1" parent="1" source="CFYJrxoeSWMeS5hbIsR6-7" target="CFYJrxoeSWMeS5hbIsR6-9">
          <mxGeometry width="50" height="50" relative="1" as="geometry">
            <mxPoint x="480" y="450" as="sourcePoint" />
            <mxPoint x="530" y="400" as="targetPoint" />
          </mxGeometry>
        </mxCell>
        <mxCell id="CFYJrxoeSWMeS5hbIsR6-17" value="" style="endArrow=none;html=1;rounded=0;entryX=1;entryY=0.5;entryDx=0;entryDy=0;exitX=0.25;exitY=0.1;exitDx=0;exitDy=0;exitPerimeter=0;" edge="1" parent="1" source="CFYJrxoeSWMeS5hbIsR6-7" target="CFYJrxoeSWMeS5hbIsR6-14">
          <mxGeometry width="50" height="50" relative="1" as="geometry">
            <mxPoint x="678" y="376" as="sourcePoint" />
            <mxPoint x="580" y="363" as="targetPoint" />
          </mxGeometry>
        </mxCell>
      </root>
    </mxGraphModel>
  </diagram>
</mxfile>
